<mxfile host="Electron" agent="Mozilla/5.0 (Windows NT 10.0; Win64; x64) AppleWebKit/537.36 (KHTML, like Gecko) draw.io/24.7.17 Chrome/128.0.6613.36 Electron/32.0.1 Safari/537.36" version="24.7.17">
  <diagram name="PÃ¡gina-1" id="fCDBEqCxd_dt8ph7jBxW">
    <mxGraphModel dx="472" dy="827" grid="1" gridSize="10" guides="1" tooltips="1" connect="1" arrows="1" fold="1" page="1" pageScale="1" pageWidth="827" pageHeight="1169" math="0" shadow="0">
      <root>
        <mxCell id="0" />
        <mxCell id="1" parent="0" />
        <mxCell id="6Z4QMyzsqzsXz3-b84b1-2" value="Clientes" style="rounded=0;whiteSpace=wrap;html=1;fillColor=#1ba1e2;fontColor=#ffffff;strokeColor=#006EAF;" parent="1" vertex="1">
          <mxGeometry x="320" y="80" width="120" height="60" as="geometry" />
        </mxCell>
        <mxCell id="6Z4QMyzsqzsXz3-b84b1-3" value="Nombres" style="ellipse;whiteSpace=wrap;html=1;direction=west;fillColor=#647687;fontColor=#ffffff;strokeColor=#314354;" parent="1" vertex="1">
          <mxGeometry x="207" y="160" width="70" height="50" as="geometry" />
        </mxCell>
        <mxCell id="6Z4QMyzsqzsXz3-b84b1-7" value="Apellidos" style="ellipse;whiteSpace=wrap;html=1;fillColor=#647687;fontColor=#ffffff;strokeColor=#314354;" parent="1" vertex="1">
          <mxGeometry x="207" y="10" width="70" height="50" as="geometry" />
        </mxCell>
        <mxCell id="jemc8MfUeGdxt3rsgUVg-50" value="" style="edgeStyle=orthogonalEdgeStyle;rounded=0;orthogonalLoop=1;jettySize=auto;html=1;endArrow=none;endFill=0;" parent="1" source="jemc8MfUeGdxt3rsgUVg-2" target="6Z4QMyzsqzsXz3-b84b1-2" edge="1">
          <mxGeometry relative="1" as="geometry" />
        </mxCell>
        <mxCell id="jemc8MfUeGdxt3rsgUVg-2" value="&lt;u&gt;DNI&lt;/u&gt;" style="ellipse;whiteSpace=wrap;html=1;fillColor=#647687;fontColor=#ffffff;strokeColor=#314354;" parent="1" vertex="1">
          <mxGeometry x="207" y="85" width="70" height="50" as="geometry" />
        </mxCell>
        <mxCell id="jemc8MfUeGdxt3rsgUVg-3" value="Fecha de nacimiento" style="ellipse;whiteSpace=wrap;html=1;fillColor=#647687;fontColor=#ffffff;strokeColor=#314354;" parent="1" vertex="1">
          <mxGeometry x="396" y="190" width="70" height="50" as="geometry" />
        </mxCell>
        <mxCell id="jemc8MfUeGdxt3rsgUVg-5" value="Direcciones" style="ellipse;whiteSpace=wrap;html=1;fillColor=#647687;fontColor=#ffffff;strokeColor=#314354;" parent="1" vertex="1">
          <mxGeometry x="296" y="190" width="70" height="50" as="geometry" />
        </mxCell>
        <mxCell id="jemc8MfUeGdxt3rsgUVg-6" value="" style="endArrow=none;html=1;rounded=0;exitX=0.5;exitY=0;exitDx=0;exitDy=0;endFill=0;" parent="1" source="jemc8MfUeGdxt3rsgUVg-3" target="6Z4QMyzsqzsXz3-b84b1-2" edge="1">
          <mxGeometry width="50" height="50" relative="1" as="geometry">
            <mxPoint x="430" y="180" as="sourcePoint" />
            <mxPoint x="430.5" y="143" as="targetPoint" />
          </mxGeometry>
        </mxCell>
        <mxCell id="jemc8MfUeGdxt3rsgUVg-7" value="" style="endArrow=none;html=1;rounded=0;exitX=0.5;exitY=0;exitDx=0;exitDy=0;endFill=0;" parent="1" source="jemc8MfUeGdxt3rsgUVg-5" target="6Z4QMyzsqzsXz3-b84b1-2" edge="1">
          <mxGeometry width="50" height="50" relative="1" as="geometry">
            <mxPoint x="332" y="180" as="sourcePoint" />
            <mxPoint x="331.5" y="144" as="targetPoint" />
          </mxGeometry>
        </mxCell>
        <mxCell id="jemc8MfUeGdxt3rsgUVg-12" value="" style="endArrow=none;html=1;rounded=0;entryX=0;entryY=0.5;entryDx=0;entryDy=0;endFill=0;" parent="1" target="jemc8MfUeGdxt3rsgUVg-14" edge="1">
          <mxGeometry width="50" height="50" relative="1" as="geometry">
            <mxPoint x="441" y="109.5" as="sourcePoint" />
            <mxPoint x="551" y="109.5" as="targetPoint" />
          </mxGeometry>
        </mxCell>
        <mxCell id="jemc8MfUeGdxt3rsgUVg-46" value="" style="edgeStyle=orthogonalEdgeStyle;rounded=0;orthogonalLoop=1;jettySize=auto;html=1;endArrow=none;endFill=0;" parent="1" source="jemc8MfUeGdxt3rsgUVg-13" target="jemc8MfUeGdxt3rsgUVg-26" edge="1">
          <mxGeometry relative="1" as="geometry" />
        </mxCell>
        <mxCell id="jemc8MfUeGdxt3rsgUVg-13" value="Producto" style="rounded=0;whiteSpace=wrap;html=1;fillColor=#1ba1e2;fontColor=#ffffff;strokeColor=#006EAF;" parent="1" vertex="1">
          <mxGeometry x="560" y="258" width="120" height="60" as="geometry" />
        </mxCell>
        <mxCell id="jemc8MfUeGdxt3rsgUVg-14" value="Compra" style="rhombus;whiteSpace=wrap;html=1;fillColor=#60a917;fontColor=#ffffff;strokeColor=#2D7600;" parent="1" vertex="1">
          <mxGeometry x="570" y="90" width="100" height="40" as="geometry" />
        </mxCell>
        <mxCell id="jemc8MfUeGdxt3rsgUVg-16" value="" style="endArrow=none;html=1;rounded=0;exitX=0.495;exitY=1;exitDx=0;exitDy=0;exitPerimeter=0;entryX=0.5;entryY=0;entryDx=0;entryDy=0;endFill=0;" parent="1" source="jemc8MfUeGdxt3rsgUVg-14" target="jemc8MfUeGdxt3rsgUVg-13" edge="1">
          <mxGeometry width="50" height="50" relative="1" as="geometry">
            <mxPoint x="619.5" y="135" as="sourcePoint" />
            <mxPoint x="619.5" y="248" as="targetPoint" />
          </mxGeometry>
        </mxCell>
        <mxCell id="jemc8MfUeGdxt3rsgUVg-48" value="" style="edgeStyle=orthogonalEdgeStyle;rounded=0;orthogonalLoop=1;jettySize=auto;html=1;endArrow=none;endFill=0;" parent="1" source="jemc8MfUeGdxt3rsgUVg-17" target="jemc8MfUeGdxt3rsgUVg-13" edge="1">
          <mxGeometry relative="1" as="geometry" />
        </mxCell>
        <mxCell id="jemc8MfUeGdxt3rsgUVg-17" value="Nombre" style="ellipse;whiteSpace=wrap;html=1;fillColor=#647687;fontColor=#ffffff;strokeColor=#314354;" parent="1" vertex="1">
          <mxGeometry x="730" y="263" width="70" height="50" as="geometry" />
        </mxCell>
        <mxCell id="jemc8MfUeGdxt3rsgUVg-49" value="" style="edgeStyle=orthogonalEdgeStyle;rounded=0;orthogonalLoop=1;jettySize=auto;html=1;endArrow=none;endFill=0;" parent="1" source="jemc8MfUeGdxt3rsgUVg-18" target="jemc8MfUeGdxt3rsgUVg-13" edge="1">
          <mxGeometry relative="1" as="geometry" />
        </mxCell>
        <mxCell id="jemc8MfUeGdxt3rsgUVg-18" value="&lt;u&gt;Codigo&lt;/u&gt;" style="ellipse;whiteSpace=wrap;html=1;fillColor=#647687;fontColor=#ffffff;strokeColor=#314354;" parent="1" vertex="1">
          <mxGeometry x="450" y="263" width="70" height="50" as="geometry" />
        </mxCell>
        <mxCell id="jemc8MfUeGdxt3rsgUVg-19" value="Precio" style="ellipse;whiteSpace=wrap;html=1;fillColor=#647687;fontColor=#ffffff;strokeColor=#314354;" parent="1" vertex="1">
          <mxGeometry x="700" y="170" width="70" height="50" as="geometry" />
        </mxCell>
        <mxCell id="jemc8MfUeGdxt3rsgUVg-24" value="" style="endArrow=none;html=1;rounded=0;exitX=0.214;exitY=1;exitDx=0;exitDy=0;exitPerimeter=0;entryX=1;entryY=0;entryDx=0;entryDy=0;endFill=0;" parent="1" source="jemc8MfUeGdxt3rsgUVg-19" target="jemc8MfUeGdxt3rsgUVg-13" edge="1">
          <mxGeometry width="50" height="50" relative="1" as="geometry">
            <mxPoint x="710" y="220" as="sourcePoint" />
            <mxPoint x="680" y="254" as="targetPoint" />
          </mxGeometry>
        </mxCell>
        <mxCell id="jemc8MfUeGdxt3rsgUVg-40" value="" style="edgeStyle=orthogonalEdgeStyle;rounded=0;orthogonalLoop=1;jettySize=auto;html=1;endArrow=none;endFill=0;" parent="1" source="jemc8MfUeGdxt3rsgUVg-26" edge="1">
          <mxGeometry relative="1" as="geometry">
            <mxPoint x="620" y="540" as="targetPoint" />
          </mxGeometry>
        </mxCell>
        <mxCell id="jemc8MfUeGdxt3rsgUVg-26" value="Proporcionan" style="rhombus;whiteSpace=wrap;html=1;fillColor=#60a917;fontColor=#ffffff;strokeColor=#2D7600;" parent="1" vertex="1">
          <mxGeometry x="570" y="420" width="100" height="40" as="geometry" />
        </mxCell>
        <mxCell id="jemc8MfUeGdxt3rsgUVg-43" value="" style="edgeStyle=orthogonalEdgeStyle;rounded=0;orthogonalLoop=1;jettySize=auto;html=1;endArrow=none;endFill=0;" parent="1" source="jemc8MfUeGdxt3rsgUVg-28" edge="1">
          <mxGeometry relative="1" as="geometry">
            <mxPoint x="620" y="600" as="targetPoint" />
          </mxGeometry>
        </mxCell>
        <mxCell id="jemc8MfUeGdxt3rsgUVg-28" value="Nombres" style="ellipse;whiteSpace=wrap;html=1;direction=west;fillColor=#647687;fontColor=#ffffff;strokeColor=#314354;" parent="1" vertex="1">
          <mxGeometry x="585" y="640" width="70" height="50" as="geometry" />
        </mxCell>
        <mxCell id="jemc8MfUeGdxt3rsgUVg-44" value="" style="edgeStyle=orthogonalEdgeStyle;rounded=0;orthogonalLoop=1;jettySize=auto;html=1;endArrow=none;endFill=0;" parent="1" source="jemc8MfUeGdxt3rsgUVg-29" edge="1">
          <mxGeometry relative="1" as="geometry">
            <mxPoint x="680" y="570" as="targetPoint" />
          </mxGeometry>
        </mxCell>
        <mxCell id="jemc8MfUeGdxt3rsgUVg-29" value="Direcciones" style="ellipse;whiteSpace=wrap;html=1;fillColor=#647687;fontColor=#ffffff;strokeColor=#314354;" parent="1" vertex="1">
          <mxGeometry x="730" y="545" width="70" height="50" as="geometry" />
        </mxCell>
        <mxCell id="jemc8MfUeGdxt3rsgUVg-30" value="" style="endArrow=classic;html=1;rounded=0;" parent="1" edge="1">
          <mxGeometry width="50" height="50" relative="1" as="geometry">
            <mxPoint x="1900" y="1060" as="sourcePoint" />
            <mxPoint x="1900" y="1010" as="targetPoint" />
          </mxGeometry>
        </mxCell>
        <mxCell id="jemc8MfUeGdxt3rsgUVg-45" value="" style="edgeStyle=orthogonalEdgeStyle;rounded=0;orthogonalLoop=1;jettySize=auto;html=1;endArrow=none;endFill=0;" parent="1" source="jemc8MfUeGdxt3rsgUVg-41" edge="1">
          <mxGeometry relative="1" as="geometry">
            <mxPoint x="560" y="570" as="targetPoint" />
          </mxGeometry>
        </mxCell>
        <mxCell id="jemc8MfUeGdxt3rsgUVg-41" value="&lt;u&gt;DNI&lt;/u&gt;" style="ellipse;whiteSpace=wrap;html=1;fillColor=#647687;fontColor=#ffffff;strokeColor=#314354;" parent="1" vertex="1">
          <mxGeometry x="440" y="545" width="70" height="50" as="geometry" />
        </mxCell>
        <mxCell id="jemc8MfUeGdxt3rsgUVg-47" value="Proveedores" style="rounded=0;whiteSpace=wrap;html=1;fillColor=#1ba1e2;fontColor=#ffffff;strokeColor=#006EAF;" parent="1" vertex="1">
          <mxGeometry x="560" y="540" width="120" height="60" as="geometry" />
        </mxCell>
        <mxCell id="jemc8MfUeGdxt3rsgUVg-55" value="" style="endArrow=none;html=1;rounded=0;exitX=0.043;exitY=0.72;exitDx=0;exitDy=0;exitPerimeter=0;entryX=0;entryY=1;entryDx=0;entryDy=0;endFill=0;" parent="1" source="6Z4QMyzsqzsXz3-b84b1-3" target="6Z4QMyzsqzsXz3-b84b1-2" edge="1">
          <mxGeometry width="50" height="50" relative="1" as="geometry">
            <mxPoint x="277" y="185" as="sourcePoint" />
            <mxPoint x="327" y="135" as="targetPoint" />
          </mxGeometry>
        </mxCell>
        <mxCell id="jemc8MfUeGdxt3rsgUVg-56" value="" style="endArrow=none;html=1;rounded=0;exitX=0.957;exitY=0.7;exitDx=0;exitDy=0;exitPerimeter=0;entryX=0;entryY=0;entryDx=0;entryDy=0;endFill=0;" parent="1" source="6Z4QMyzsqzsXz3-b84b1-7" target="6Z4QMyzsqzsXz3-b84b1-2" edge="1">
          <mxGeometry width="50" height="50" relative="1" as="geometry">
            <mxPoint x="296" y="70" as="sourcePoint" />
            <mxPoint x="346" y="20" as="targetPoint" />
          </mxGeometry>
        </mxCell>
        <mxCell id="jemc8MfUeGdxt3rsgUVg-57" value="(1,n)" style="text;html=1;align=center;verticalAlign=middle;whiteSpace=wrap;rounded=0;" parent="1" vertex="1">
          <mxGeometry x="440" y="90" width="40" height="12" as="geometry" />
        </mxCell>
        <mxCell id="jemc8MfUeGdxt3rsgUVg-59" value="(1,n)" style="text;html=1;align=center;verticalAlign=middle;whiteSpace=wrap;rounded=0;" parent="1" vertex="1">
          <mxGeometry x="620" y="240" width="40" height="12" as="geometry" />
        </mxCell>
        <mxCell id="jemc8MfUeGdxt3rsgUVg-60" value="(1,n)" style="text;html=1;align=center;verticalAlign=middle;whiteSpace=wrap;rounded=0;" parent="1" vertex="1">
          <mxGeometry x="620" y="330" width="40" height="12" as="geometry" />
        </mxCell>
        <mxCell id="jemc8MfUeGdxt3rsgUVg-62" value="(n,1)" style="text;html=1;align=center;verticalAlign=middle;whiteSpace=wrap;rounded=0;" parent="1" vertex="1">
          <mxGeometry x="570" y="520" width="40" height="12" as="geometry" />
        </mxCell>
        <mxCell id="li71oRMU847m1Z4lUFyV-1" value="(n,n)" style="text;html=1;align=center;verticalAlign=middle;whiteSpace=wrap;rounded=0;" parent="1" vertex="1">
          <mxGeometry x="660" y="95" width="60" height="30" as="geometry" />
        </mxCell>
        <mxCell id="li71oRMU847m1Z4lUFyV-2" value="(1,n)" style="text;html=1;align=center;verticalAlign=middle;whiteSpace=wrap;rounded=0;" parent="1" vertex="1">
          <mxGeometry x="670" y="425" width="60" height="30" as="geometry" />
        </mxCell>
      </root>
    </mxGraphModel>
  </diagram>
</mxfile>
